<?xml version="1.0" standalone="no"?>
<!DOCTYPE svg PUBLIC "-//W3C//DTD SVG 20010904//EN"
 "http://www.w3.org/TR/2001/REC-SVG-20010904/DTD/svg10.dtd">
<svg version="1.0" xmlns="http://www.w3.org/2000/svg"
 width="260.000000pt" height="260.000000pt" viewBox="0 0 260.000000 260.000000"
 preserveAspectRatio="xMidYMid meet">
<metadata>
Created by potrace 1.11, written by Peter Selinger 2001-2013
</metadata>
<g transform="translate(0.000000,260.000000) scale(0.100000,-0.100000)"
fill="#000000" stroke="none">
<path d="M1180 2111 c-14 -4 -40 -16 -58 -25 -31 -16 -37 -16 -73 -2 -53 22
-105 20 -159 -5 -25 -12 -78 -27 -118 -34 -90 -17 -143 -43 -205 -103 -130
-125 -231 -348 -302 -667 -29 -132 -65 -360 -65 -417 0 -74 89 -144 229 -179
50 -12 101 -34 132 -54 89 -61 168 -69 308 -34 l83 21 58 -26 c101 -46 204
-67 325 -67 127 -1 218 17 317 62 62 29 69 30 118 20 109 -23 222 -9 300 37
25 15 82 39 128 54 108 36 164 75 192 134 23 46 23 47 6 125 -63 291 -313 883
-421 995 -52 54 -136 86 -224 86 -46 0 -72 5 -90 17 -58 40 -124 50 -192 30
-33 -10 -45 -9 -89 10 -55 24 -160 35 -200 22z m158 -62 c17 -6 32 -15 32 -19
0 -5 -13 -24 -30 -43 -16 -19 -34 -46 -39 -60 -13 -33 -70 -46 -108 -26 -54
29 -74 57 -71 97 3 35 6 38 53 55 51 17 99 16 163 -4z m-317 -9 c64 -18 59
-88 -5 -76 -35 7 -98 36 -108 51 -22 30 43 44 113 25z m593 -19 c8 -7 13 -18
10 -25 -7 -18 -59 -46 -85 -46 -12 0 -43 -14 -69 -30 -37 -24 -54 -29 -78 -24
-58 12 -29 62 68 119 36 21 55 25 92 22 26 -2 54 -10 62 -16z m-747 -43 c15
-7 29 -13 30 -13 2 -1 -19 -24 -46 -52 -123 -128 -217 -372 -327 -849 -26
-109 -49 -230 -51 -268 l-5 -68 -40 6 c-50 8 -126 46 -156 79 l-24 25 16 129
c68 527 228 907 421 999 56 27 136 32 182 12z m1018 -28 c61 -30 89 -71 185
-265 140 -283 280 -685 280 -803 0 -32 -6 -49 -25 -68 -24 -24 -119 -74 -140
-74 -12 0 -41 105 -90 320 -81 353 -126 495 -206 652 -53 103 -120 180 -189
219 -47 27 -50 36 -12 42 64 11 148 1 197 -23z m-764 -71 l39 -19 -35 -51
c-38 -56 -46 -80 -80 -248 -55 -269 -106 -650 -107 -793 l0 -106 -57 -16
c-139 -39 -239 -28 -313 34 -34 28 -38 36 -38 80 0 86 110 554 179 761 65 194
140 324 215 371 26 16 42 18 95 13 35 -3 81 -15 102 -26z m543 -1 c50 -27 90
-65 135 -133 60 -89 99 -183 150 -356 46 -158 151 -604 151 -642 0 -60 -138
-115 -260 -103 -115 11 -110 6 -110 100 0 147 -59 500 -145 861 -19 83 -35
152 -35 155 0 3 -16 29 -35 58 l-35 53 33 15 c35 15 114 11 151 -8z m-237 -54
c45 -28 82 -142 142 -429 72 -346 92 -479 94 -619 l2 -131 -38 -18 c-153 -72
-442 -70 -591 5 l-39 20 6 146 c8 174 25 316 67 559 61 348 75 397 133 451 43
40 171 49 224 16z"/>
</g>
</svg>
